<svg width="24.000000" height="24.000000" viewBox="0 0 24 24" fill="none" xmlns="http://www.w3.org/2000/svg" xmlns:xlink="http://www.w3.org/1999/xlink">
	<defs>
		<clipPath id="clip111_7300">
			<rect id="seeds 2" width="24.000000" height="24.000000" fill="white" fill-opacity="0"/>
		</clipPath>
	</defs>
	<g clip-path="url(#clip111_7300)">
		<path id="Vector" d="M19.77 17.17C19.64 17.03 19.41 17.02 19.27 17.16C17.64 18.71 15.74 20.09 14.43 20.67C13.15 21.25 11.74 21.37 10.39 21.04C11.02 20.67 11.59 20.21 12.07 19.68C12.07 19.68 12.07 19.68 12.07 19.68C14.91 19.32 16.94 17.27 17.03 17.18C17.16 17.04 17.16 16.82 17.02 16.69C16.88 16.55 16.66 16.55 16.52 16.69C16.51 16.71 14.93 18.29 12.72 18.84C13.44 17.75 13.86 16.44 13.86 15.04C13.86 14.78 13.84 14.5 13.82 14.2C13.8 14 13.63 13.86 13.43 13.88C13.24 13.9 13.1 14.07 13.12 14.26C13.14 14.54 13.16 14.8 13.16 15.04C13.16 18.47 10.36 21.26 6.93 21.26C3.49 21.26 0.7 18.47 0.7 15.04C0.7 13.16 1.5 9.99 2.6 7.48C3.92 4.46 5.5 2.73 6.93 2.73C8.22 2.73 9.36 4.1 10.09 5.25C10.19 5.42 10.41 5.47 10.58 5.36C10.74 5.26 10.79 5.04 10.68 4.88C9.49 2.98 8.22 2.02 6.93 2.02C5.97 2.02 5.02 2.56 4.1 3.61C3.34 4.49 2.61 5.7 1.95 7.2C0.8 9.82 0 13.04 0 15.04C0 18.86 3.1 21.97 6.93 21.97C7.83 21.97 8.68 21.79 9.47 21.48C10.26 21.78 11.08 21.92 11.89 21.92C12.85 21.92 13.82 21.72 14.72 21.31C16.11 20.69 18.04 19.29 19.76 17.67C19.9 17.53 19.9 17.31 19.77 17.17Z" fill="#84BE51" fill-opacity="1.000000" fill-rule="nonzero"/>
		<path id="Vector" d="M19.32 16.89Q19.22 16.93 19.14 17.01L19.14 17.01Q17.92 18.17 16.61 19.12Q15.31 20.06 14.35 20.49Q13.77 20.75 13.16 20.88Q12.79 20.96 12.42 21Q11.98 21.04 11.54 21.01Q11.23 20.99 10.92 20.94Q11.15 20.79 11.36 20.61Q11.79 20.27 12.17 19.87Q13.14 19.73 14.1 19.33Q14.91 19 15.69 18.5Q16.25 18.13 16.74 17.71Q17.01 17.49 17.17 17.32Q17.25 17.24 17.29 17.14Q17.33 17.05 17.33 16.93Q17.33 16.82 17.28 16.72Q17.24 16.62 17.16 16.54Q17.08 16.46 16.98 16.42Q16.88 16.38 16.77 16.39Q16.66 16.39 16.56 16.43Q16.46 16.47 16.38 16.55Q16.29 16.64 16.1 16.81Q15.75 17.12 15.33 17.4Q14.26 18.15 13.16 18.51Q13.31 18.24 13.43 17.95Q13.62 17.55 13.75 17.11Q13.88 16.7 13.95 16.27Q14.06 15.66 14.06 15.04Q14.06 14.65 14.02 14.18Q14.01 14.06 13.96 13.97Q13.91 13.88 13.82 13.8Q13.73 13.73 13.63 13.7Q13.53 13.67 13.42 13.68Q13.3 13.69 13.21 13.74Q13.12 13.79 13.04 13.87Q12.97 13.96 12.94 14.06Q12.91 14.16 12.92 14.28Q12.96 14.7 12.96 15.04Q12.96 15.7 12.82 16.33Q12.7 16.87 12.48 17.38Q12.27 17.88 11.98 18.33Q11.64 18.85 11.19 19.3Q10.74 19.75 10.22 20.08Q9.77 20.38 9.27 20.59Q8.76 20.81 8.23 20.92Q7.59 21.06 6.93 21.06Q6.26 21.06 5.63 20.92Q5.09 20.81 4.58 20.59Q4.08 20.38 3.64 20.08Q3.12 19.75 2.67 19.3Q2.22 18.85 1.88 18.33Q1.58 17.88 1.37 17.38Q1.16 16.87 1.04 16.33Q0.9 15.7 0.9 15.04Q0.9 14.36 1.04 13.45Q1.17 12.56 1.43 11.54Q1.68 10.53 2.02 9.52Q2.38 8.48 2.78 7.56Q3.76 5.33 4.87 4.11Q5.41 3.52 5.93 3.22Q6.45 2.93 6.93 2.93Q7.73 2.93 8.59 3.71Q9.26 4.32 9.92 5.36Q9.98 5.46 10.07 5.52Q10.16 5.58 10.27 5.6Q10.38 5.63 10.48 5.61Q10.59 5.59 10.68 5.53Q10.78 5.47 10.84 5.39Q10.9 5.3 10.93 5.19Q10.95 5.08 10.93 4.97Q10.91 4.87 10.85 4.77Q9.08 1.96 7.12 1.83Q7.02 1.82 6.93 1.82Q6.85 1.82 6.77 1.83Q5.32 1.91 3.95 3.48Q2.78 4.82 1.77 7.12Q0.9 9.1 0.35 11.31Q0.08 12.37 -0.06 13.31Q-0.2 14.28 -0.2 15.04Q-0.2 15.82 -0.04 16.56Q0.1 17.2 0.36 17.81Q0.61 18.4 0.96 18.93Q1.36 19.55 1.89 20.08Q2.41 20.6 3.03 21.01Q3.56 21.35 4.15 21.61Q4.76 21.86 5.4 22Q6.14 22.17 6.93 22.17Q7.67 22.17 8.38 22.02Q8.94 21.9 9.47 21.7Q10.18 21.95 10.91 22.06Q11.4 22.12 11.89 22.12Q12.53 22.12 13.16 22.01Q14 21.86 14.8 21.5Q15.87 21.02 17.24 20.03Q18.6 19.04 19.9 17.81Q19.98 17.73 20.02 17.64Q20.06 17.54 20.07 17.43Q20.07 17.31 20.03 17.21Q19.99 17.11 19.91 17.03Q19.84 16.95 19.74 16.91Q19.64 16.86 19.53 16.86Q19.41 16.86 19.32 16.89ZM9.47 21.48C10.26 21.78 11.08 21.92 11.89 21.92C12.85 21.92 13.82 21.72 14.72 21.31C16.11 20.69 18.04 19.29 19.76 17.67C19.9 17.53 19.9 17.31 19.77 17.17C19.64 17.03 19.41 17.02 19.27 17.16C17.64 18.71 15.74 20.09 14.43 20.67C13.24 21.21 11.94 21.35 10.68 21.1C10.58 21.08 10.49 21.06 10.39 21.04C10.48 20.99 10.56 20.94 10.64 20.89C11.17 20.55 11.65 20.14 12.07 19.68L12.07 19.68C14.91 19.32 16.94 17.27 17.03 17.18C17.16 17.04 17.16 16.82 17.02 16.69C16.88 16.55 16.66 16.55 16.52 16.69C16.51 16.71 15.07 18.16 13 18.76C12.91 18.79 12.82 18.82 12.72 18.84C12.77 18.76 12.82 18.68 12.87 18.59C13.5 17.55 13.86 16.33 13.86 15.04C13.86 14.78 13.84 14.5 13.82 14.2C13.8 14 13.63 13.86 13.43 13.88C13.24 13.9 13.1 14.07 13.12 14.26C13.14 14.54 13.16 14.8 13.16 15.04C13.16 18.47 10.36 21.26 6.93 21.26C3.49 21.26 0.7 18.47 0.7 15.04C0.7 13.16 1.5 9.99 2.6 7.48C3.92 4.46 5.5 2.73 6.93 2.73C8.22 2.73 9.36 4.1 10.09 5.25C10.19 5.42 10.41 5.47 10.58 5.36C10.74 5.26 10.79 5.04 10.68 4.88C9.49 2.98 8.22 2.02 6.93 2.02C5.97 2.02 5.02 2.56 4.1 3.61C3.34 4.49 2.61 5.7 1.95 7.2C0.8 9.82 0 13.04 0 15.04C0 18.86 3.1 21.97 6.93 21.97C7.83 21.97 8.68 21.79 9.47 21.48Z" fill="#84BE51" fill-opacity="1.000000" fill-rule="evenodd"/>
		<path id="Vector" d="M23.76 9.67C23.18 8.36 21.47 7.55 18.83 7.31C16.86 7.14 14.38 7.3 12.14 7.75C11.92 7.22 11.69 6.71 11.45 6.23C11.36 6.06 11.15 5.99 10.98 6.08C10.8 6.17 10.74 6.38 10.82 6.55C11.74 8.38 12.52 10.72 12.91 12.83C12.95 13 13.09 13.11 13.26 13.11C13.28 13.11 13.3 13.11 13.33 13.11C13.52 13.07 13.64 12.89 13.61 12.7C13.49 12.05 13.33 11.39 13.15 10.72C16.95 9.37 19.81 10 19.83 10.01C20.02 10.05 20.21 9.94 20.26 9.75C20.3 9.56 20.18 9.37 20 9.33C19.87 9.3 16.94 8.63 12.95 10.04C12.78 9.5 12.6 8.95 12.4 8.42C14.54 8 16.9 7.85 18.77 8.01C20.42 8.16 22.52 8.62 23.12 9.95C23.73 11.31 22.7 13.56 20.29 16.13C20.16 16.27 20.17 16.5 20.31 16.63C20.38 16.69 20.46 16.72 20.55 16.72C20.64 16.72 20.74 16.69 20.81 16.61C22.34 14.98 24.76 11.9 23.76 9.67Z" fill="#84BE51" fill-opacity="1.000000" fill-rule="nonzero"/>
		<path id="Vector" d="M22.15 7.91Q20.87 7.29 18.85 7.11Q17.36 6.98 15.57 7.1Q13.88 7.21 12.26 7.52Q11.95 6.79 11.63 6.14Q11.58 6.04 11.5 5.97Q11.42 5.91 11.31 5.87Q11.2 5.83 11.09 5.84Q10.99 5.85 10.89 5.9Q10.79 5.95 10.72 6.03Q10.65 6.11 10.61 6.22Q10.58 6.33 10.58 6.43Q10.59 6.54 10.64 6.64Q11.33 8 11.88 9.65Q12.43 11.3 12.72 12.86Q12.74 12.96 12.79 13.04Q12.83 13.12 12.91 13.19Q12.99 13.25 13.08 13.28Q13.16 13.31 13.26 13.31Q13.29 13.31 13.32 13.31Q13.34 13.31 13.36 13.3Q13.47 13.28 13.56 13.23Q13.65 13.17 13.72 13.08Q13.78 12.98 13.8 12.88Q13.82 12.77 13.8 12.66Q13.64 11.78 13.39 10.85Q14.59 10.44 15.83 10.24Q16.88 10.06 17.91 10.06Q18.64 10.05 19.29 10.13Q19.62 10.17 19.79 10.21Q19.9 10.23 20 10.21Q20.11 10.2 20.2 10.14Q20.3 10.08 20.36 9.99Q20.42 9.91 20.45 9.79Q20.48 9.68 20.46 9.58Q20.44 9.47 20.38 9.38Q20.32 9.28 20.24 9.22Q20.15 9.16 20.04 9.13Q19.81 9.08 19.43 9.03Q18.72 8.94 17.92 8.95Q16.82 8.95 15.68 9.14Q14.37 9.35 13.08 9.79Q12.89 9.17 12.67 8.57Q14.16 8.29 15.7 8.2Q17.36 8.09 18.75 8.21Q20.25 8.35 21.27 8.72Q22.57 9.21 22.94 10.04Q23.14 10.49 23.08 11.11Q23.01 11.74 22.66 12.51Q21.93 14.09 20.15 16Q20.07 16.08 20.03 16.18Q20 16.28 20 16.39Q20 16.5 20.05 16.6Q20.09 16.7 20.17 16.78Q20.25 16.85 20.35 16.89Q20.44 16.92 20.55 16.92Q20.67 16.92 20.77 16.88Q20.87 16.84 20.95 16.75Q22.57 15.02 23.41 13.46Q24.59 11.26 24.01 9.74Q23.98 9.66 23.94 9.59Q23.93 9.55 23.91 9.51Q23.43 8.52 22.15 7.91ZM12.47 8.61C12.44 8.54 12.42 8.48 12.4 8.42C12.46 8.4 12.53 8.39 12.6 8.38C14.69 7.99 16.95 7.85 18.77 8.01C20.42 8.16 22.52 8.62 23.12 9.95C23.73 11.31 22.7 13.56 20.29 16.13C20.16 16.27 20.17 16.5 20.31 16.63C20.38 16.69 20.46 16.72 20.55 16.72C20.64 16.72 20.74 16.69 20.81 16.61C22.34 14.98 24.76 11.9 23.76 9.67C23.18 8.36 21.47 7.55 18.83 7.31C16.86 7.14 14.38 7.3 12.14 7.75C11.92 7.22 11.69 6.71 11.45 6.23C11.36 6.06 11.15 5.99 10.98 6.08C10.8 6.17 10.74 6.38 10.82 6.55C11.74 8.38 12.52 10.72 12.91 12.83C12.95 13 13.09 13.11 13.26 13.11C13.28 13.11 13.3 13.11 13.33 13.11C13.52 13.07 13.64 12.89 13.61 12.7C13.49 12.05 13.33 11.39 13.15 10.72C16.95 9.37 19.81 10 19.83 10.01C20.02 10.05 20.21 9.94 20.26 9.75C20.3 9.56 20.18 9.37 20 9.33C19.87 9.3 17.03 8.66 13.14 9.98C13.08 10 13.01 10.02 12.95 10.04C12.93 9.98 12.91 9.92 12.89 9.85C12.76 9.43 12.62 9.02 12.47 8.61Z" fill="#84BE51" fill-opacity="1.000000" fill-rule="evenodd"/>
		<path id="Vector" d="M19 13.12C18.91 12.95 18.7 12.88 18.53 12.96L14.44 14.97C14.26 15.06 14.19 15.27 14.28 15.45C14.34 15.57 14.46 15.64 14.59 15.64C14.65 15.64 14.7 15.63 14.75 15.61L18.84 13.59C19.01 13.51 19.08 13.3 19 13.12Z" fill="#84BE51" fill-opacity="1.000000" fill-rule="nonzero"/>
		<path id="Vector" d="M18.65 12.73Q18.54 12.73 18.44 12.78L18.44 12.78L14.35 14.79Q14.25 14.85 14.18 14.92Q14.11 15 14.07 15.11Q14.03 15.22 14.04 15.33Q14.05 15.43 14.1 15.53Q14.13 15.61 14.19 15.66Q14.24 15.72 14.31 15.76Q14.37 15.8 14.44 15.82Q14.52 15.84 14.59 15.84Q14.65 15.84 14.71 15.83Q14.78 15.81 14.84 15.79L18.93 13.77Q19.03 13.72 19.1 13.64Q19.17 13.57 19.21 13.46Q19.24 13.35 19.24 13.24Q19.23 13.14 19.18 13.04Q19.13 12.93 19.05 12.86Q18.97 12.79 18.86 12.76Q18.75 12.72 18.65 12.73ZM19 13.12C18.91 12.95 18.7 12.88 18.53 12.96L14.44 14.97C14.26 15.06 14.19 15.27 14.28 15.45C14.34 15.57 14.46 15.64 14.59 15.64C14.65 15.64 14.7 15.63 14.75 15.61L18.84 13.59C19.01 13.51 19.08 13.3 19 13.12Z" fill="#84BE51" fill-opacity="1.000000" fill-rule="evenodd"/>
		<path id="Vector" d="M5.57 5.26C5.41 5.14 5.19 5.17 5.07 5.32C5.04 5.37 4.21 6.47 3.56 8.47C2.96 10.3 2.41 13.29 3.16 17.07C3.19 17.24 3.34 17.35 3.5 17.35C3.53 17.35 3.55 17.35 3.58 17.34C3.76 17.31 3.89 17.12 3.85 16.93C3.13 13.32 3.65 10.47 4.22 8.72C4.83 6.82 5.62 5.76 5.63 5.75C5.75 5.59 5.72 5.37 5.57 5.26Z" fill="#84BE51" fill-opacity="1.000000" fill-rule="nonzero"/>
		<path id="Vector" d="M5.08 5.06Q4.98 5.11 4.91 5.2L4.91 5.2Q4.85 5.29 4.75 5.44Q4.56 5.72 4.37 6.06Q3.78 7.13 3.37 8.41Q2.81 10.12 2.65 12.02Q2.45 14.52 2.96 17.11Q2.98 17.2 3.03 17.29Q3.08 17.37 3.16 17.43Q3.24 17.49 3.32 17.52Q3.41 17.55 3.5 17.55Q3.53 17.55 3.56 17.55Q3.58 17.55 3.61 17.54Q3.73 17.52 3.81 17.46Q3.9 17.4 3.96 17.31Q4.03 17.21 4.05 17.11Q4.07 17 4.05 16.89Q3.56 14.47 3.75 12.14Q3.89 10.37 4.41 8.78Q4.78 7.61 5.33 6.62Q5.5 6.31 5.66 6.06Q5.75 5.93 5.79 5.87Q5.86 5.78 5.89 5.68Q5.91 5.58 5.9 5.46Q5.88 5.35 5.83 5.26Q5.78 5.17 5.69 5.1Q5.6 5.03 5.5 5Q5.39 4.97 5.28 4.99Q5.17 5 5.08 5.06ZM5.57 5.26C5.41 5.14 5.19 5.17 5.07 5.32C5.04 5.37 4.21 6.47 3.56 8.47C2.96 10.3 2.41 13.29 3.16 17.07C3.19 17.24 3.34 17.35 3.5 17.35C3.53 17.35 3.55 17.35 3.58 17.34C3.76 17.31 3.89 17.12 3.85 16.93C3.13 13.32 3.65 10.47 4.22 8.72C4.83 6.82 5.62 5.76 5.63 5.75C5.75 5.59 5.72 5.37 5.57 5.26Z" fill="#84BE51" fill-opacity="1.000000" fill-rule="evenodd"/>
		<path id="Vector" d="M11.59 14.13C11.52 12.51 11.05 11.29 11.03 11.24C10.96 11.06 10.76 10.97 10.58 11.04C10.4 11.11 10.31 11.32 10.38 11.5C10.38 11.51 10.83 12.67 10.89 14.19C10.97 16.17 10.38 17.8 9.13 19.02C8.99 19.15 8.99 19.38 9.12 19.52C9.19 19.59 9.28 19.62 9.37 19.62C9.46 19.62 9.55 19.59 9.62 19.52C11 18.17 11.68 16.31 11.59 14.13Z" fill="#84BE51" fill-opacity="1.000000" fill-rule="nonzero"/>
		<path id="Vector" d="M11.22 11.17L11.22 11.17Q11.17 11.06 11.1 10.99Q11.03 10.91 10.92 10.87Q10.82 10.82 10.72 10.82Q10.61 10.82 10.5 10.86Q10.4 10.9 10.32 10.97Q10.25 11.04 10.2 11.15Q10.15 11.25 10.15 11.36Q10.15 11.46 10.19 11.57Q10.3 11.85 10.42 12.33Q10.65 13.27 10.69 14.19Q10.77 16.23 9.9 17.71Q9.53 18.34 8.99 18.87Q8.91 18.95 8.87 19.05Q8.82 19.15 8.82 19.26Q8.82 19.38 8.86 19.48Q8.9 19.57 8.98 19.66Q9.06 19.74 9.16 19.78Q9.26 19.82 9.37 19.82Q9.49 19.82 9.58 19.78Q9.68 19.74 9.76 19.66Q10.25 19.19 10.62 18.63Q11.07 17.97 11.35 17.21Q11.86 15.8 11.79 14.13Q11.75 13.09 11.49 12.05Q11.35 11.51 11.22 11.17ZM11.59 14.13C11.52 12.51 11.05 11.29 11.03 11.24C10.96 11.06 10.76 10.97 10.58 11.04C10.4 11.11 10.31 11.32 10.38 11.5C10.38 11.51 10.83 12.67 10.89 14.19C10.97 16.17 10.38 17.8 9.13 19.02C8.99 19.15 8.99 19.38 9.12 19.52C9.19 19.59 9.28 19.62 9.37 19.62C9.46 19.62 9.55 19.59 9.62 19.52C11 18.17 11.68 16.31 11.59 14.13Z" fill="#84BE51" fill-opacity="1.000000" fill-rule="evenodd"/>
		<path id="Vector" d="M8.5 8.12C8.49 7.93 8.33 7.78 8.14 7.78C7.94 7.79 7.79 7.95 7.8 8.15L7.96 12.7C7.97 12.89 8.12 13.04 8.31 13.04C8.31 13.04 8.32 13.04 8.32 13.04C8.52 13.03 8.67 12.87 8.66 12.68L8.5 8.12Z" fill="#84BE51" fill-opacity="1.000000" fill-rule="nonzero"/>
		<path id="Vector" d="M8.34 7.62Q8.25 7.58 8.13 7.58L8.13 7.58Q8.01 7.59 7.92 7.63Q7.82 7.67 7.74 7.76Q7.66 7.84 7.63 7.94Q7.59 8.04 7.6 8.15L7.76 12.71Q7.76 12.82 7.8 12.92Q7.85 13.01 7.93 13.09Q8.01 13.16 8.1 13.2Q8.2 13.24 8.31 13.24Q8.32 13.24 8.33 13.24Q8.44 13.24 8.54 13.19Q8.64 13.15 8.71 13.07Q8.79 12.98 8.83 12.88Q8.86 12.79 8.86 12.67L8.7 8.12Q8.69 8 8.65 7.9Q8.61 7.81 8.52 7.73Q8.44 7.66 8.34 7.62ZM8.5 8.12C8.49 7.93 8.33 7.78 8.14 7.78C7.94 7.79 7.79 7.95 7.8 8.15L7.96 12.7C7.97 12.89 8.12 13.04 8.31 13.04C8.31 13.04 8.32 13.04 8.32 13.04C8.52 13.03 8.67 12.87 8.66 12.68L8.5 8.12Z" fill="#84BE51" fill-opacity="1.000000" fill-rule="evenodd"/>
		<path id="Vector" d="M5.95 19.5C5.16 19.22 4.48 18.48 4.47 18.47C4.34 18.32 4.12 18.31 3.97 18.44C3.83 18.57 3.82 18.79 3.95 18.94C3.98 18.97 4.75 19.82 5.71 20.17C5.75 20.18 5.79 20.19 5.83 20.19C5.98 20.19 6.11 20.1 6.16 19.96C6.23 19.77 6.13 19.57 5.95 19.5Z" fill="#84BE51" fill-opacity="1.000000" fill-rule="nonzero"/>
		<path id="Vector" d="M5.05 18.73Q4.78 18.51 4.62 18.33L4.62 18.33Q4.54 18.25 4.45 18.2Q4.35 18.16 4.24 18.15Q4.12 18.15 4.02 18.18Q3.92 18.22 3.84 18.29Q3.75 18.37 3.71 18.47Q3.66 18.56 3.66 18.67Q3.65 18.79 3.69 18.89Q3.72 18.99 3.8 19.07Q4.02 19.31 4.35 19.59Q5.01 20.12 5.64 20.35Q5.69 20.37 5.74 20.38Q5.78 20.39 5.83 20.39Q5.92 20.39 5.99 20.36Q6.07 20.34 6.15 20.29Q6.22 20.24 6.27 20.17Q6.32 20.11 6.35 20.02Q6.39 19.92 6.39 19.81Q6.38 19.71 6.33 19.6Q6.28 19.5 6.21 19.43Q6.13 19.36 6.02 19.32Q5.56 19.15 5.05 18.73ZM5.95 19.5C5.16 19.22 4.48 18.48 4.47 18.47C4.34 18.32 4.12 18.31 3.97 18.44C3.83 18.57 3.82 18.79 3.95 18.94C3.98 18.97 4.75 19.82 5.71 20.17C5.75 20.18 5.79 20.19 5.83 20.19C5.98 20.19 6.11 20.1 6.16 19.96C6.23 19.77 6.13 19.57 5.95 19.5Z" fill="#84BE51" fill-opacity="1.000000" fill-rule="evenodd"/>
		<path id="Vector" d="M8.51 13.74C8.32 13.74 8.16 13.9 8.16 14.09L8.16 14.12C8.16 14.32 8.32 14.48 8.51 14.48C8.7 14.48 8.86 14.32 8.86 14.12L8.86 14.09C8.86 13.9 8.7 13.74 8.51 13.74Z" fill="#84BE51" fill-opacity="1.000000" fill-rule="nonzero"/>
		<path id="Vector" d="M8 13.88Q7.96 13.98 7.96 14.09L7.96 14.12Q7.96 14.24 8 14.34Q8.04 14.43 8.12 14.51Q8.2 14.6 8.3 14.64Q8.4 14.68 8.51 14.68Q8.63 14.68 8.72 14.64Q8.82 14.6 8.9 14.51Q8.98 14.43 9.02 14.34Q9.06 14.24 9.06 14.12L9.06 14.09Q9.06 13.98 9.02 13.88Q8.98 13.78 8.9 13.7Q8.82 13.62 8.72 13.58Q8.63 13.54 8.51 13.54Q8.4 13.54 8.3 13.58Q8.2 13.62 8.12 13.7Q8.04 13.78 8 13.88ZM8.16 14.09C8.16 13.9 8.32 13.74 8.51 13.74C8.7 13.74 8.86 13.9 8.86 14.09L8.86 14.12C8.86 14.32 8.7 14.48 8.51 14.48C8.32 14.48 8.16 14.32 8.16 14.12L8.16 14.09Z" fill="#84BE51" fill-opacity="1.000000" fill-rule="evenodd"/>
		<path id="Vector" d="M7.64 14.67C7.45 14.67 7.29 14.82 7.29 15.02L7.29 15.05C7.29 15.25 7.45 15.4 7.64 15.4C7.84 15.4 8 15.25 8 15.05L8 15.02C8 14.82 7.84 14.67 7.64 14.67Z" fill="#84BE51" fill-opacity="1.000000" fill-rule="nonzero"/>
		<path id="Vector" d="M7.13 14.81Q7.09 14.9 7.09 15.02L7.09 15.05Q7.09 15.16 7.13 15.26Q7.17 15.36 7.25 15.44Q7.33 15.52 7.43 15.56Q7.53 15.6 7.64 15.6Q7.76 15.6 7.85 15.56Q7.95 15.52 8.03 15.44Q8.11 15.36 8.16 15.26Q8.19 15.16 8.19 15.05L8.19 15.02Q8.19 14.9 8.16 14.81Q8.11 14.71 8.03 14.63Q7.95 14.55 7.85 14.51Q7.76 14.47 7.64 14.47Q7.53 14.47 7.43 14.51Q7.33 14.55 7.25 14.63Q7.17 14.71 7.13 14.81ZM7.29 15.02C7.29 14.82 7.45 14.67 7.64 14.67C7.84 14.67 8 14.82 8 15.02L8 15.05C8 15.25 7.84 15.4 7.64 15.4C7.45 15.4 7.29 15.25 7.29 15.05L7.29 15.02Z" fill="#84BE51" fill-opacity="1.000000" fill-rule="evenodd"/>
		<path id="Vector" d="M8.76 16.24C8.57 16.24 8.41 16.4 8.41 16.59L8.41 16.63C8.41 16.82 8.57 16.98 8.76 16.98C8.95 16.98 9.11 16.82 9.11 16.63L9.11 16.59C9.11 16.4 8.95 16.24 8.76 16.24Z" fill="#84BE51" fill-opacity="1.000000" fill-rule="nonzero"/>
		<path id="Vector" d="M8.25 16.38Q8.21 16.48 8.21 16.59L8.21 16.63Q8.21 16.74 8.25 16.84Q8.29 16.93 8.37 17.02Q8.45 17.1 8.55 17.14Q8.65 17.18 8.76 17.18Q8.88 17.18 8.97 17.14Q9.07 17.1 9.15 17.02Q9.23 16.93 9.27 16.84Q9.31 16.74 9.31 16.63L9.31 16.59Q9.31 16.48 9.27 16.38Q9.23 16.28 9.15 16.2Q9.07 16.12 8.97 16.08Q8.88 16.04 8.76 16.04Q8.65 16.04 8.55 16.08Q8.45 16.12 8.37 16.2Q8.29 16.28 8.25 16.38ZM8.41 16.59C8.41 16.4 8.57 16.24 8.76 16.24C8.95 16.24 9.11 16.4 9.11 16.59L9.11 16.63C9.11 16.82 8.95 16.98 8.76 16.98C8.57 16.98 8.41 16.82 8.41 16.63L8.41 16.59Z" fill="#84BE51" fill-opacity="1.000000" fill-rule="evenodd"/>
	</g>
</svg>
